<svg xmlns="http://www.w3.org/2000/svg" xmlns:xlink="http://www.w3.org/1999/xlink" width="500" zoomAndPan="magnify" viewBox="0 0 375 374.999991" height="500" preserveAspectRatio="xMidYMid meet" version="1.0">
    <defs><clipPath id="79714026f8"><path d="M 108.554688 125.164062 L 257.554688 125.164062 L 257.554688 298.527344 L 108.554688 298.527344 Z M 108.554688 125.164062 " clip-rule="nonzero"/></clipPath><clipPath id="b2437f2020"><path d="M 128 169 L 298.835938 169 L 298.835938 211.003906 L 128 211.003906 Z M 128 169 " clip-rule="nonzero"/></clipPath><clipPath id="1cad91085d"><path d="M 39 28.265625 L 269 28.265625 L 269 211.003906 L 39 211.003906 Z M 39 28.265625 " clip-rule="nonzCircularTextero"/></clipPath><clipPath id="0a4b79d481"><path d="M 279 202 L 298.835938 202 L 298.835938 211.003906 L 279 211.003906 Z M 279 202 " clip-rule="nonzero"/></clipPath><clipPath id="72554a0de1"><path d="M 32.386719 35.144531 L 326.640625 35.144531 L 326.640625 347.199219 L 32.386719 347.199219 Z M 32.386719 35.144531 " clip-rule="nonzero"/></clipPath></defs><g clip-path="url(#79714026f8)"><path fill="#cc0000" d="M 175.476562 298.527344 L 111.496094 259.875 L 131.359375 249.921875 Z M 108.570312 254.21875 L 108.570312 179.632812 L 128.222656 244.371094 Z M 108.570312 174.398438 L 108.570312 170.101562 C 108.570312 169.054688 108.988281 168.214844 109.613281 167.585938 L 179.867188 150.304688 L 179.867188 125.164062 L 111.078125 166.644531 L 132.824219 238.085938 L 176.835938 157.53125 Z M 186.246094 125.164062 L 255.136719 166.75 L 233.078125 238.191406 L 189.171875 157.320312 L 257.542969 173.976562 L 257.542969 170.101562 C 257.542969 168.84375 256.914062 167.902344 256.078125 167.273438 L 255.765625 167.167969 L 186.246094 150.199219 Z M 257.542969 180.367188 L 257.542969 254.007812 L 237.679688 244.371094 Z M 254.617188 259.769531 L 190.738281 298.320312 L 234.648438 249.921875 Z M 226.492188 249.191406 L 139.410156 249.191406 L 183.003906 297.480469 Z M 183.109375 159.207031 L 137.421875 242.90625 L 228.585938 242.90625 Z M 183.109375 159.207031 " fill-opacity="1" fill-rule="evenodd"/></g><g clip-path="url(#b2437f2020)"><path fill="#2e2d2d" d="M 128.386719 232.652344 C 128.386719 232.652344 128.71875 233.007812 129.367188 233.6875 C 130.011719 234.375 130.992188 235.351562 132.289062 236.605469 C 133.589844 237.851562 135.234375 239.332031 137.230469 240.96875 C 139.238281 242.597656 141.59375 244.386719 144.339844 246.195312 C 149.820312 249.8125 156.851562 253.539062 165.335938 256.480469 C 173.804688 259.433594 183.710938 261.632812 194.59375 262.410156 C 197.3125 262.59375 200.085938 262.726562 202.910156 262.75 C 205.738281 262.769531 208.609375 262.695312 211.523438 262.507812 C 214.433594 262.3125 217.378906 262.042969 220.347656 261.644531 C 221.820312 261.445312 223.34375 261.222656 224.792969 260.972656 C 225.589844 260.835938 226.394531 260.699219 227.199219 260.5625 C 227.9375 260.421875 228.671875 260.277344 229.414062 260.128906 C 241.59375 257.726562 254.234375 253.675781 266.953125 248.34375 C 279.691406 243.015625 292.558594 236.449219 305.589844 229.300781 C 318.613281 222.160156 331.847656 214.386719 345.523438 206.917969 C 359.203125 199.460938 373.335938 192.285156 388.027344 186.429688 C 395.359375 183.488281 402.84375 180.917969 410.382812 178.761719 C 412.269531 178.230469 414.15625 177.71875 416.054688 177.253906 C 416.996094 177.007812 417.949219 176.777344 418.894531 176.558594 L 420.320312 176.226562 L 421.121094 176.039062 L 421.789062 175.898438 C 422.683594 175.703125 423.578125 175.515625 424.472656 175.324219 C 425.367188 175.132812 426.246094 174.949219 427.207031 174.765625 C 428.148438 174.585938 429.085938 174.40625 430.023438 174.222656 C 430.96875 174.035156 431.894531 173.859375 432.8125 173.703125 C 447.535156 171.070312 461.992188 169.726562 475.683594 169.554688 C 489.382812 169.363281 502.308594 170.359375 514.058594 172.101562 C 515.527344 172.304688 516.980469 172.546875 518.410156 172.796875 C 519.84375 173.035156 521.257812 173.261719 522.652344 173.539062 C 524.046875 173.804688 525.421875 174.066406 526.78125 174.328125 C 528.136719 174.605469 529.472656 174.90625 530.789062 175.191406 C 532.105469 175.46875 533.398438 175.804688 534.675781 176.105469 C 535.949219 176.410156 537.207031 176.707031 538.4375 177.039062 C 539.667969 177.359375 540.882812 177.679688 542.078125 177.992188 C 543.269531 178.335938 544.4375 178.675781 545.589844 179.007812 C 546.160156 179.179688 546.730469 179.34375 547.292969 179.507812 C 547.859375 179.683594 548.414062 179.859375 548.964844 180.03125 C 550.074219 180.378906 551.15625 180.71875 552.21875 181.054688 C 554.339844 181.753906 556.378906 182.441406 558.320312 183.140625 C 562.203125 184.542969 565.738281 185.894531 568.886719 187.214844 C 570.453125 187.878906 571.941406 188.511719 573.339844 189.101562 C 574.722656 189.730469 576.015625 190.316406 577.226562 190.867188 C 579.625 191.964844 581.636719 192.976562 583.273438 193.773438 C 584.898438 194.601562 586.128906 195.261719 586.960938 195.695312 C 587.796875 196.132812 588.222656 196.359375 588.222656 196.359375 C 588.222656 196.359375 587.75 196.253906 586.832031 196.042969 C 585.914062 195.828125 584.550781 195.539062 582.792969 195.117188 C 581.027344 194.726562 578.84375 194.253906 576.285156 193.695312 C 575 193.429688 573.628906 193.148438 572.15625 192.847656 C 570.6875 192.558594 569.128906 192.253906 567.480469 191.929688 C 504.046875 179.542969 437.386719 187.839844 379.550781 216.777344 C 372.050781 220.53125 364.652344 224.488281 357.292969 228.511719 C 343.945312 235.777344 330.507812 243.398438 316.742188 250.421875 C 303 257.441406 288.933594 263.8125 274.6875 268.738281 C 260.445312 273.675781 246.03125 277.074219 232.019531 278.4375 C 231.121094 278.527344 230.226562 278.609375 229.335938 278.691406 C 228.511719 278.746094 227.691406 278.804688 226.871094 278.855469 C 225.082031 279 223.378906 279.050781 221.648438 279.101562 C 218.210938 279.183594 214.832031 279.144531 211.519531 278.949219 C 204.898438 278.554688 198.546875 277.75 192.5625 276.480469 C 186.578125 275.203125 180.945312 273.59375 175.742188 271.652344 C 170.546875 269.691406 165.75 267.523438 161.445312 265.121094 C 152.8125 260.351562 146.097656 254.949219 141.207031 249.996094 C 139.976562 248.761719 138.867188 247.550781 137.84375 246.394531 C 136.828125 245.230469 135.917969 244.109375 135.09375 243.050781 C 133.4375 240.941406 132.167969 239.054688 131.1875 237.503906 C 130.199219 235.960938 129.519531 234.730469 129.0625 233.910156 C 128.617188 233.082031 128.386719 232.652344 128.386719 232.652344 " fill-opacity="1" fill-rule="nonzero"/></g><g clip-path="url(#1cad91085d)"><path fill="#2e2d2d" d="M 225.351562 100.316406 C 228.347656 96.566406 229.589844 91.566406 229.589844 91.566406 C 229.589844 91.566406 230.421875 106.039062 237.976562 116.351562 C 237.976562 116.351562 220.929688 105.84375 225.351562 100.316406 Z M 262.855469 149.457031 C 262.125 148.914062 261.003906 149.425781 260.429688 148.722656 C 239.558594 123.078125 242.105469 112.835938 235.019531 83.976562 C 232.101562 72.097656 210.550781 50.058594 213.691406 34.789062 C 213.691406 34.789062 209.53125 37.78125 207.296875 47.417969 C 207.070312 47.152344 186.703125 32.019531 162.699219 28.328125 C 162.699219 28.328125 174.167969 34.335938 186.222656 46.269531 C 185.738281 45.957031 185.246094 45.644531 184.746094 45.34375 C 173.429688 38.539062 124.960938 29.421875 87.203125 71.191406 C 93.65625 69.273438 99.855469 69.800781 104.667969 70.929688 C 93.886719 72.96875 76.578125 79.023438 60.242188 96.828125 C 60.242188 96.828125 70.292969 93.851562 81.347656 92.832031 C 73.867188 96.769531 65.347656 103.113281 57.496094 113.335938 C 57.496094 113.335938 62.195312 111.488281 68.488281 109.84375 C 62.113281 114.414062 52.378906 123.820312 47.1875 140.972656 C 47.1875 140.972656 50.242188 138.203125 54.605469 135.09375 C 20.527344 201.984375 56.34375 275.285156 56.34375 275.285156 C 41.105469 229.726562 41.175781 99.757812 166.492188 90.988281 C 166.492188 90.988281 110.660156 124.605469 131.113281 182.617188 C 155.695312 252.339844 240.476562 241.011719 240.476562 241.011719 C 152.679688 237.234375 124.804688 127.839844 185.839844 96.75 C 186.234375 96.550781 176.839844 114.691406 182.890625 125.609375 C 188.445312 135.632812 200.886719 153.390625 204.285156 159.257812 C 214.609375 177.117188 207.316406 179.597656 216.820312 190.339844 C 216.820312 190.339844 216.46875 178.890625 228.78125 174.882812 C 231.589844 173.96875 237.832031 178.722656 238.382812 176.699219 C 238.992188 174.457031 236.273438 171.695312 238.1875 167.25 C 238.1875 167.25 219.328125 169.53125 206.007812 129.5625 C 218.785156 134.71875 216.703125 141.066406 221.988281 145.84375 L 224.378906 147.890625 C 225.308594 148.636719 226.253906 149.320312 227.246094 149.921875 L 241.589844 158.636719 C 242.75 159.320312 243.886719 160 244.996094 160.6875 L 251.511719 165.371094 C 254.648438 168.0625 257.476562 171.382812 259.921875 176.054688 C 261.777344 179.585938 276.789062 159.769531 262.855469 149.457031 Z M 212.058594 295.878906 C 145.335938 293.710938 92.789062 244.257812 94.695312 185.425781 C 95.9375 147.257812 119.785156 114.527344 154.601562 96.828125 C 110.90625 111.671875 79.425781 148.453125 77.996094 192.460938 C 76.089844 251.292969 128.632812 300.75 195.355469 302.914062 C 218.800781 303.675781 240.867188 298.496094 259.726562 288.902344 C 244.996094 293.910156 228.878906 296.421875 212.058594 295.878906 " fill-opacity="1" fill-rule="nonzero"/></g><g clip-path="url(#0a4b79d481)"><path fill="#2e2d2d" d="M 279.605469 281.34375 C 423.808594 269.664062 453.492188 199.90625 617.445312 215.082031 C 471.753906 171.289062 405.855469 251.425781 279.605469 281.34375 " fill-opacity="1" fill-rule="nonzero"/></g><g clip-path="url(#72554a0de1)"><path fill="#2e2d2d" d="M 170.226562 64.144531 C 170.226562 60.941406 172.820312 58.34375 176.015625 58.34375 C 179.210938 58.34375 181.804688 60.941406 181.804688 64.144531 L 181.804688 66.464844 C 181.804688 69.667969 179.210938 72.265625 176.015625 72.265625 C 172.820312 72.265625 170.226562 69.667969 170.226562 66.464844 Z M 238.457031 64.863281 C 238.246094 67.925781 237.503906 70.945312 236.300781 73.84375 C 255.285156 83.84375 271.285156 98.644531 282.835938 116.882812 C 295.5 136.8125 302.191406 159.847656 302.191406 183.492188 L 302.191406 199.871094 C 302.191406 267.667969 247.136719 322.839844 179.488281 322.839844 C 111.839844 322.839844 56.785156 267.667969 56.785156 199.871094 C 56.785156 145.976562 91.210938 98.855469 142.445312 82.636719 C 143.972656 82.148438 145.617188 82.3125 147.007812 83.097656 C 155.875 88.089844 167.425781 90.824219 179.488281 90.824219 C 191.550781 90.824219 203.101562 88.089844 211.96875 83.097656 C 217.015625 80.269531 221.046875 76.8125 223.570312 73.054688 C 223.613281 72.984375 223.683594 72.914062 223.730469 72.84375 C 225.859375 69.667969 226.949219 66.371094 226.949219 62.984375 C 226.949219 61.265625 226.667969 59.574219 226.117188 57.902344 C 226.09375 57.859375 226.070312 57.789062 226.046875 57.742188 C 222.25 46.535156 192.3125 35.144531 166.753906 35.144531 C 144.992188 35.144531 137.675781 43.796875 132.929688 57.742188 C 132.351562 59.390625 131.054688 60.710938 129.410156 61.3125 C 71.441406 82.378906 32.476562 138.066406 32.476562 199.871094 C 32.476562 281.097656 98.4375 347.199219 179.488281 347.199219 C 260.539062 347.199219 326.5 281.097656 326.5 199.871094 C 326.5 141.289062 291.472656 88.179688 238.457031 64.863281 " fill-opacity="1" fill-rule="nonzero"/></g>
</svg>